<?xml version="1.0" encoding="UTF-8"?>
<svg version="1.1" xmlns="http://www.w3.org/2000/svg" width="666" height="375">
<path d="M0 0 C1.80868813 0.00333092 1.80868813 0.00333092 3.65391541 0.00672913 C4.31730423 0.0065831 4.98069305 0.00643707 5.66418457 0.00628662 C7.86644207 0.00698571 10.06861596 0.01477787 12.27085876 0.02259827 C13.79400588 0.02446246 15.31715359 0.02588636 16.84030151 0.02688599 C20.85657903 0.03071105 24.87282059 0.04054124 28.88908386 0.05158997 C32.98443617 0.06180433 37.07979427 0.06638366 41.17515564 0.07142639 C49.21618779 0.08216352 57.25719069 0.0992398 65.29820251 0.12025452 C64.81244599 5.8814193 64.32850027 11.60517807 63.32554626 17.30384827 C63.14830017 18.33316467 62.97105408 19.36248108 62.78843689 20.42298889 C62.60603455 21.45746155 62.4236322 22.4919342 62.23570251 23.55775452 C61.86680408 25.66009263 61.50079446 27.76294024 61.13804626 29.86634827 C60.97683289 30.78085754 60.81561951 31.69536682 60.64952087 32.6375885 C60.20479411 35.36244489 60.20479411 35.36244489 60.29820251 39.12025452 C59.63820251 39.12025452 58.97820251 39.12025452 58.29820251 39.12025452 C58.24745071 39.78765152 58.19669891 40.45504852 58.14440918 41.14266968 C57.59019581 47.85682122 56.66339979 54.41404428 55.45054626 61.03822327 C55.27439285 62.02148087 55.09823944 63.00473846 54.91674805 64.01779175 C54.36079827 67.11525703 53.79837195 70.21150363 53.23570251 73.30775452 C52.85441157 75.4255154 52.47354835 77.54335334 52.09312439 79.66127014 C51.16720936 84.81532872 50.23251824 89.96768417 49.29820251 95.12025452 C66.62320251 95.61525452 66.62320251 95.61525452 84.29820251 96.12025452 C84.62820251 92.49025452 84.95820251 88.86025452 85.29820251 85.12025452 C85.59738819 83.04872289 85.92453032 80.98072324 86.29795837 78.92127991 C86.49163498 77.83968094 86.68531158 76.75808197 86.88485718 75.64370728 C87.09215958 74.51319443 87.29946198 73.38268158 87.51304626 72.21791077 C87.72884842 71.01895676 87.94465057 69.82000275 88.16699219 68.5847168 C88.85211794 64.78324375 89.54367701 60.98297696 90.23570251 57.18275452 C90.92277279 53.38586351 91.6085048 49.5887335 92.29370117 45.79150391 C92.71861091 43.43933379 93.14482346 41.08739849 93.57260132 38.73574829 C94.73529267 32.32799204 95.83490151 25.91594625 96.84558105 19.4822998 C97.29820251 17.12025452 97.29820251 17.12025452 98.29820251 15.12025452 C103.57820251 15.12025452 108.85820251 15.12025452 114.29820251 15.12025452 C114.44257751 13.57337952 114.58695251 12.02650452 114.73570251 10.43275452 C115.06612818 6.89247953 115.59571499 3.63269213 116.29820251 0.12025452 C139.06820251 0.12025452 161.83820251 0.12025452 185.29820251 0.12025452 C179.59993802 34.30984151 179.59993802 34.30984151 177.29820251 47.18275452 C176.78420352 50.0719041 176.27150342 52.96128322 175.75914001 55.85072327 C175.57126419 56.90945648 175.57126419 56.90945648 175.3795929 57.98957825 C174.19927059 64.65334185 173.06100156 71.32411383 171.92320251 77.99525452 C169.78751171 90.49175194 167.51615026 102.96202872 165.23570251 115.43275452 C162.98076646 127.76493626 160.74731586 140.09559376 158.72886658 152.46913147 C157.1502545 162.1214369 155.44112382 171.75008105 153.7283783 181.37928772 C152.26952025 189.58695046 150.83452787 197.79813342 149.42710876 206.01478577 C148.95512541 208.75744541 148.48266477 211.50002237 148.01002502 214.24256897 C147.70401683 216.02511268 147.39993562 217.80798835 147.09785461 219.59120178 C146.67479464 222.08744069 146.24498616 224.58243486 145.81382751 227.07728577 C145.62821007 228.18907951 145.62821007 228.18907951 145.43884277 229.32333374 C144.75245664 233.25350277 143.80220791 236.36024102 142.29820251 240.12025452 C134.04820251 239.79025452 125.79820251 239.46025452 117.29820251 239.12025452 C116.96820251 241.10025452 116.63820251 243.08025452 116.29820251 245.12025452 C97.15820251 245.12025452 78.01820251 245.12025452 58.29820251 245.12025452 C58.90769014 237.19691539 59.50913135 229.94864878 61.09898376 222.28041077 C61.46055407 220.46053496 61.82068799 218.64037331 62.17955017 216.81996155 C62.45705109 215.42091583 62.45705109 215.42091583 62.74015808 213.99360657 C63.68512068 209.12802589 64.54429974 204.24765297 65.40367126 199.36634827 C65.57552948 198.39404266 65.7473877 197.42173706 65.92445374 196.41996765 C66.44604099 193.46610157 66.96611158 190.51197237 67.48570251 187.55775452 C68.18591191 183.57699906 68.88796833 179.59657587 69.59117126 175.61634827 C69.748452 174.71855148 69.90573273 173.8207547 70.06777954 172.89575195 C70.28854912 171.64647667 70.28854912 171.64647667 70.51377869 170.3719635 C70.6416124 169.64476608 70.76944611 168.91756866 70.90115356 168.16833496 C71.2962951 166.13009346 71.77578096 164.12928402 72.29820251 162.12025452 C67.95639026 162.23874378 63.61479287 162.36300812 59.27330017 162.49256897 C57.79710861 162.53581487 56.32087036 162.57749708 54.84458923 162.61756897 C52.71960903 162.67552298 50.59486158 162.73914398 48.47007751 162.80384827 C47.19229431 162.84050598 45.91451111 162.8771637 44.5980072 162.91493225 C41.97910378 163.0778871 39.78803535 163.34972255 37.29820251 164.12025452 C37.11757263 165.18421448 36.93694275 166.24817444 36.75083923 167.34437561 C32.684333 191.2849219 28.55029621 215.21196211 24.29820251 239.12025452 C15.71820251 239.12025452 7.13820251 239.12025452 -1.70179749 239.12025452 C-2.19679749 242.09025452 -2.19679749 242.09025452 -2.70179749 245.12025452 C-22.17179749 245.12025452 -41.64179749 245.12025452 -61.70179749 245.12025452 C-60.05179749 235.55025452 -58.40179749 225.98025452 -56.70179749 216.12025452 C-55.1770551 206.97203421 -55.1770551 206.97203421 -53.65492249 197.82337952 C-51.61944132 185.61873334 -49.51256603 173.4286182 -47.24476624 161.26478577 C-43.36762115 140.45445835 -39.69551807 119.6153406 -36.12312317 98.75041199 C-32.92881046 80.10363057 -29.63701508 61.4778322 -26.21376038 42.87171936 C-26.05927933 42.03150238 -25.90479828 41.1912854 -25.74563599 40.3256073 C-25.45192219 38.72841844 -25.15778289 37.13130776 -24.86315918 35.5342865 C-23.87011373 30.12397713 -22.95738992 24.7040895 -22.11390686 19.26820374 C-21.70179749 17.12025452 -21.70179749 17.12025452 -20.70179749 15.12025452 C-15.42179749 15.12025452 -10.14179749 15.12025452 -4.70179749 15.12025452 C-4.70179749 12.81025452 -4.70179749 10.50025452 -4.70179749 8.12025452 C-3.80411105 0.16931748 -3.80411105 0.16931748 0 0 Z M122.29820251 5.12025452 C120.87561439 8.94346009 120.05777975 12.03306757 120.29820251 16.12025452 C121.40372141 15.18434948 122.50755705 14.24645594 123.61070251 13.30775452 C124.22558533 12.7856842 124.84046814 12.26361389 125.47398376 11.72572327 C127.98224818 9.52017547 127.98224818 9.52017547 130.29820251 7.12025452 C130.29820251 6.46025452 130.29820251 5.80025452 130.29820251 5.12025452 C127.65820251 5.12025452 125.01820251 5.12025452 122.29820251 5.12025452 Z M169.29820251 5.12025452 C171.27820251 8.09025452 173.25820251 11.06025452 175.29820251 14.12025452 C177.18164184 10.35337587 177.51878087 9.09066489 177.29820251 5.12025452 C174.65820251 5.12025452 172.01820251 5.12025452 169.29820251 5.12025452 Z M83.29820251 225.12025452 C81.94380584 227.82904787 82.23318801 230.12958719 82.29820251 233.12025452 C84.27820251 233.12025452 86.25820251 233.12025452 88.29820251 233.12025452 C86.97820251 230.48025452 85.65820251 227.84025452 84.29820251 225.12025452 C83.96820251 225.12025452 83.63820251 225.12025452 83.29820251 225.12025452 Z M-36.70179749 226.12025452 C-37.03179749 228.43025452 -37.36179749 230.74025452 -37.70179749 233.12025452 C-34.40179749 233.12025452 -31.10179749 233.12025452 -27.70179749 233.12025452 C-30.66463062 230.73352783 -33.64450257 228.38491742 -36.70179749 226.12025452 Z M18.29820251 230.12025452 C19.29820251 233.12025452 19.29820251 233.12025452 19.29820251 233.12025452 Z " fill="#FDFDFD" transform="translate(271.70179748535156,64.87974548339844)"/>
<path d="M0 0 C1.80868813 0.00333092 1.80868813 0.00333092 3.65391541 0.00672913 C4.31730423 0.0065831 4.98069305 0.00643707 5.66418457 0.00628662 C7.86644207 0.00698571 10.06861596 0.01477787 12.27085876 0.02259827 C13.79400588 0.02446246 15.31715359 0.02588636 16.84030151 0.02688599 C20.85657903 0.03071105 24.87282059 0.04054124 28.88908386 0.05158997 C32.98443617 0.06180433 37.07979427 0.06638366 41.17515564 0.07142639 C49.21618779 0.08216352 57.25719069 0.0992398 65.29820251 0.12025452 C64.81244599 5.8814193 64.32850027 11.60517807 63.32554626 17.30384827 C63.14830017 18.33316467 62.97105408 19.36248108 62.78843689 20.42298889 C62.60603455 21.45746155 62.4236322 22.4919342 62.23570251 23.55775452 C61.86680408 25.66009263 61.50079446 27.76294024 61.13804626 29.86634827 C60.97683289 30.78085754 60.81561951 31.69536682 60.64952087 32.6375885 C60.20479411 35.36244489 60.20479411 35.36244489 60.29820251 39.12025452 C59.63820251 39.12025452 58.97820251 39.12025452 58.29820251 39.12025452 C58.24745071 39.78765152 58.19669891 40.45504852 58.14440918 41.14266968 C57.59019581 47.85682122 56.66339979 54.41404428 55.45054626 61.03822327 C55.27439285 62.02148087 55.09823944 63.00473846 54.91674805 64.01779175 C54.36079827 67.11525703 53.79837195 70.21150363 53.23570251 73.30775452 C52.85441157 75.4255154 52.47354835 77.54335334 52.09312439 79.66127014 C51.16720936 84.81532872 50.23251824 89.96768417 49.29820251 95.12025452 C66.62320251 95.61525452 66.62320251 95.61525452 84.29820251 96.12025452 C84.62820251 92.49025452 84.95820251 88.86025452 85.29820251 85.12025452 C85.59738819 83.04872289 85.92453032 80.98072324 86.29795837 78.92127991 C86.49163498 77.83968094 86.68531158 76.75808197 86.88485718 75.64370728 C87.09215958 74.51319443 87.29946198 73.38268158 87.51304626 72.21791077 C87.72884842 71.01895676 87.94465057 69.82000275 88.16699219 68.5847168 C88.85211794 64.78324375 89.54367701 60.98297696 90.23570251 57.18275452 C90.92277279 53.38586351 91.6085048 49.5887335 92.29370117 45.79150391 C92.71861091 43.43933379 93.14482346 41.08739849 93.57260132 38.73574829 C94.73529267 32.32799204 95.83490151 25.91594625 96.84558105 19.4822998 C97.29820251 17.12025452 97.29820251 17.12025452 98.29820251 15.12025452 C103.57820251 15.12025452 108.85820251 15.12025452 114.29820251 15.12025452 C114.44257751 13.57337952 114.58695251 12.02650452 114.73570251 10.43275452 C115.06612818 6.89247953 115.59571499 3.63269213 116.29820251 0.12025452 C139.06820251 0.12025452 161.83820251 0.12025452 185.29820251 0.12025452 C179.59993802 34.30984151 179.59993802 34.30984151 177.29820251 47.18275452 C176.78420352 50.0719041 176.27150342 52.96128322 175.75914001 55.85072327 C175.57126419 56.90945648 175.57126419 56.90945648 175.3795929 57.98957825 C174.19927059 64.65334185 173.06100156 71.32411383 171.92320251 77.99525452 C169.78751171 90.49175194 167.51615026 102.96202872 165.23570251 115.43275452 C162.98076646 127.76493626 160.74731586 140.09559376 158.72886658 152.46913147 C157.1502545 162.1214369 155.44112382 171.75008105 153.7283783 181.37928772 C152.26952025 189.58695046 150.83452787 197.79813342 149.42710876 206.01478577 C148.95512541 208.75744541 148.48266477 211.50002237 148.01002502 214.24256897 C147.70401683 216.02511268 147.39993562 217.80798835 147.09785461 219.59120178 C146.67479464 222.08744069 146.24498616 224.58243486 145.81382751 227.07728577 C145.62821007 228.18907951 145.62821007 228.18907951 145.43884277 229.32333374 C144.75245664 233.25350277 143.80220791 236.36024102 142.29820251 240.12025452 C134.04820251 239.79025452 125.79820251 239.46025452 117.29820251 239.12025452 C116.96820251 241.10025452 116.63820251 243.08025452 116.29820251 245.12025452 C97.15820251 245.12025452 78.01820251 245.12025452 58.29820251 245.12025452 C58.90769014 237.19691539 59.50913135 229.94864878 61.09898376 222.28041077 C61.46055407 220.46053496 61.82068799 218.64037331 62.17955017 216.81996155 C62.45705109 215.42091583 62.45705109 215.42091583 62.74015808 213.99360657 C63.68512068 209.12802589 64.54429974 204.24765297 65.40367126 199.36634827 C65.57552948 198.39404266 65.7473877 197.42173706 65.92445374 196.41996765 C66.44604099 193.46610157 66.96611158 190.51197237 67.48570251 187.55775452 C68.18591191 183.57699906 68.88796833 179.59657587 69.59117126 175.61634827 C69.748452 174.71855148 69.90573273 173.8207547 70.06777954 172.89575195 C70.28854912 171.64647667 70.28854912 171.64647667 70.51377869 170.3719635 C70.6416124 169.64476608 70.76944611 168.91756866 70.90115356 168.16833496 C71.2962951 166.13009346 71.77578096 164.12928402 72.29820251 162.12025452 C67.95639026 162.23874378 63.61479287 162.36300812 59.27330017 162.49256897 C57.79710861 162.53581487 56.32087036 162.57749708 54.84458923 162.61756897 C52.71960903 162.67552298 50.59486158 162.73914398 48.47007751 162.80384827 C47.19229431 162.84050598 45.91451111 162.8771637 44.5980072 162.91493225 C41.97910378 163.0778871 39.78803535 163.34972255 37.29820251 164.12025452 C37.11757263 165.18421448 36.93694275 166.24817444 36.75083923 167.34437561 C32.684333 191.2849219 28.55029621 215.21196211 24.29820251 239.12025452 C15.71820251 239.12025452 7.13820251 239.12025452 -1.70179749 239.12025452 C-2.19679749 242.09025452 -2.19679749 242.09025452 -2.70179749 245.12025452 C-22.17179749 245.12025452 -41.64179749 245.12025452 -61.70179749 245.12025452 C-60.05179749 235.55025452 -58.40179749 225.98025452 -56.70179749 216.12025452 C-55.1770551 206.97203421 -55.1770551 206.97203421 -53.65492249 197.82337952 C-51.61944132 185.61873334 -49.51256603 173.4286182 -47.24476624 161.26478577 C-43.36762115 140.45445835 -39.69551807 119.6153406 -36.12312317 98.75041199 C-32.92881046 80.10363057 -29.63701508 61.4778322 -26.21376038 42.87171936 C-26.05927933 42.03150238 -25.90479828 41.1912854 -25.74563599 40.3256073 C-25.45192219 38.72841844 -25.15778289 37.13130776 -24.86315918 35.5342865 C-23.87011373 30.12397713 -22.95738992 24.7040895 -22.11390686 19.26820374 C-21.70179749 17.12025452 -21.70179749 17.12025452 -20.70179749 15.12025452 C-15.42179749 15.12025452 -10.14179749 15.12025452 -4.70179749 15.12025452 C-4.70179749 12.81025452 -4.70179749 10.50025452 -4.70179749 8.12025452 C-3.80411105 0.16931748 -3.80411105 0.16931748 0 0 Z M2.29820251 5.12025452 C0.66352418 10.67766252 0.66352418 10.67766252 -0.41273499 16.22181702 C-0.5208551 16.94739807 -0.62897522 17.67297913 -0.7403717 18.42054749 C-0.85139221 19.18770081 -0.96241272 19.95485413 -1.07679749 20.74525452 C-2.10253337 27.52672842 -3.26185613 34.26400712 -4.57679749 40.99525452 C-7.45073634 55.78498603 -9.92281493 70.64534827 -12.44544983 85.4981842 C-13.21678331 90.03915023 -13.9897115 94.57984215 -14.76429749 99.12025452 C-14.89319366 99.87604797 -15.02208984 100.63184143 -15.15489197 101.41053772 C-16.57159843 109.70443084 -18.01855912 117.98833244 -19.63929749 126.24525452 C-21.62450752 136.38200166 -23.34575901 146.56272306 -25.07679749 156.74525452 C-25.22634888 157.62448578 -25.37590027 158.50371704 -25.52998352 159.40959167 C-26.88228365 167.36425016 -28.22913077 175.31982854 -29.57240295 183.27601624 C-30.25550243 187.32150165 -30.94142242 191.36650032 -31.62910461 195.41120911 C-32.00453555 197.62518678 -32.37641651 199.83974131 -32.7481842 202.05433655 C-34.60180198 212.99625548 -34.60180198 212.99625548 -35.80726624 217.27259827 C-37.08698771 222.77707711 -37.26836404 228.48561967 -37.70179749 234.12025452 C-18.89179749 234.12025452 -0.08179749 234.12025452 19.29820251 234.12025452 C20.64468053 231.42729849 20.78810107 228.92235783 21.17320251 225.93275452 C21.86592368 220.88358694 22.69911436 215.92574458 23.73570251 210.93275452 C25.02324407 204.68081144 26.06675588 198.42295495 27.02574158 192.11317444 C28.39640183 183.22778963 30.02897852 174.3896009 31.67271423 165.55116272 C31.88299255 164.40091614 32.09327087 163.25066956 32.30992126 162.06556702 C32.50029968 161.0396344 32.6906781 160.01370178 32.88682556 158.9566803 C33.41781239 155.77323348 33.41781239 155.77323348 33.29820251 151.12025452 C53.75820251 151.12025452 74.21820251 151.12025452 95.29820251 151.12025452 C92.82320251 164.48525452 92.82320251 164.48525452 90.29820251 178.12025452 C88.81489135 186.64838596 88.81489135 186.64838596 87.34507751 195.17884827 C86.58139436 199.57451864 85.76980069 203.95946941 84.93882751 208.34291077 C84.70808533 209.56365295 84.47734314 210.78439514 84.23960876 212.04212952 C83.78863737 214.41673594 83.33312127 216.79048511 82.87242126 219.16322327 C82.66746033 220.24345764 82.46249939 221.32369202 82.25132751 222.43666077 C82.06731384 223.39000305 81.88330017 224.34334534 81.69371033 225.32557678 C81.15807701 228.63996735 81.15807701 228.63996735 81.29820251 234.12025452 C100.10820251 234.12025452 118.91820251 234.12025452 138.29820251 234.12025452 C140.76931521 222.67743579 140.76931521 222.67743579 142.79820251 211.18275452 C143.68720187 205.65531873 144.66362436 200.16654894 145.79820251 194.68275452 C146.89314611 189.34195049 147.81978822 184.00073795 148.64585876 178.61244202 C150.25281272 168.29533738 151.97309786 157.99873766 153.72276306 147.70497131 C154.23454302 144.68958621 154.74199518 141.67349218 155.24937439 138.65736389 C156.96487105 128.52188791 158.80431205 118.42994001 160.86494446 108.35899353 C162.61649629 99.71495039 164.00073655 91.02052368 165.36070251 82.30775452 C166.91900325 72.35637353 168.5785422 62.46553618 170.60411072 52.59706116 C171.65478831 47.33406445 172.51248158 42.04401739 173.36070251 36.74525452 C175.13741524 25.65685461 175.13741524 25.65685461 176.41929626 20.58119202 C177.23320375 17.11148561 177.39059847 13.90238749 177.35313416 10.34144592 C177.3452034 9.36076141 177.33727264 8.3800769 177.32910156 7.36967468 C177.31890488 6.62736603 177.30870819 5.88505737 177.29820251 5.12025452 C169.483675 5.09498889 161.66915793 5.07742346 153.854599 5.06532288 C151.1937877 5.06028069 148.53297919 5.05344716 145.87217712 5.04481506 C142.05714736 5.03274443 138.24215408 5.02702522 134.42710876 5.02259827 C133.22921219 5.01743698 132.03131561 5.0122757 130.79711914 5.00695801 C129.69605331 5.00688248 128.59498749 5.00680695 127.46055603 5.00672913 C126.48570755 5.00450851 125.51085907 5.0022879 124.50646973 5 C122.32348135 4.87243867 122.32348135 4.87243867 121.29820251 6.12025452 C121.25756419 7.78642567 121.25548151 9.45413547 121.29820251 11.12025452 C120.63820251 11.12025452 119.97820251 11.12025452 119.29820251 11.12025452 C119.12804626 12.33197327 118.95789001 13.54369202 118.78257751 14.79212952 C117.53054854 23.51585916 116.15674256 32.17832275 114.36070251 40.80775452 C112.54816115 49.53022914 111.1042823 58.28797858 109.73472595 67.08998108 C108.61287016 74.26941205 107.34885461 81.39998408 105.91148376 88.52259827 C105.14447904 93.02203361 104.75237148 97.57856483 104.29820251 102.12025452 C83.83820251 102.12025452 63.37820251 102.12025452 42.29820251 102.12025452 C46.49538561 77.9864517 46.49538561 77.9864517 48.52085876 68.08900452 C50.10785247 60.14784486 51.40530385 52.14915905 52.77330017 44.16810608 C53.30051311 41.10683799 53.83517503 38.0469642 54.37242126 34.98744202 C54.63647766 33.48117249 54.63647766 33.48117249 54.90586853 31.94447327 C55.23753668 30.05369872 55.56998559 28.16306088 55.90342712 26.27259827 C57.13433366 19.23220059 58.21069427 12.1890581 59.29820251 5.12025452 C40.48820251 5.12025452 21.67820251 5.12025452 2.29820251 5.12025452 Z " fill="#101010" transform="translate(271.70179748535156,64.87974548339844)"/>
<path d="M0 0 C0.33 0 0.66 0 1 0 C0.03644647 10.55808656 0.03644647 10.55808656 -1 15 C-1.33 15 -1.66 15 -2 15 C-2 12.69 -2 10.38 -2 8 C-2.66 7.67 -3.32 7.34 -4 7 C-3.34 6.01 -2.68 5.02 -2 4 C-1.34 4 -0.68 4 0 4 C0 2.68 0 1.36 0 0 Z " fill="#6C6C6C" transform="translate(304,249)"/>
</svg>
